<svg width="4509" height="4537" viewBox="0 0 4509 4537" fill="none" xmlns="http://www.w3.org/2000/svg">
<line x1="3036.7" y1="1266.54" x2="1024.54" y2="2149.66" stroke="#796377" stroke-opacity="0.48"/>
<line x1="2999.2" y1="1174.75" x2="987.038" y2="2057.87" stroke="#796377" stroke-opacity="0.48"/>
<line x1="2961.7" y1="1082.95" x2="949.534" y2="1966.08" stroke="#796377" stroke-opacity="0.48"/>
<line x1="2924.2" y1="991.164" x2="912.034" y2="1874.29" stroke="#796377" stroke-opacity="0.48"/>
<line x1="2886.7" y1="899.373" x2="874.53" y2="1782.5" stroke="#796377" stroke-opacity="0.48"/>
<line x1="2849.19" y1="807.582" x2="837.026" y2="1690.71" stroke="#796377" stroke-opacity="0.48"/>
<line x1="2811.69" y1="715.791" x2="799.526" y2="1598.92" stroke="#796377" stroke-opacity="0.48"/>
<line x1="2774.19" y1="624" x2="762.022" y2="1507.13" stroke="#796377" stroke-opacity="0.48"/>
<line x1="3079.18" y1="1364.1" x2="1067.01" y2="2247.22" stroke="#796377" stroke-opacity="0.48"/>
<line x1="3121.65" y1="1461.66" x2="1109.49" y2="2344.78" stroke="#796377" stroke-opacity="0.48"/>
<line x1="3164.13" y1="1559.22" x2="1151.96" y2="2442.34" stroke="#796377" stroke-opacity="0.48"/>
<line x1="3206.6" y1="1656.78" x2="1194.44" y2="2539.9" stroke="#796377" stroke-opacity="0.48"/>
<line x1="3249.08" y1="1754.34" x2="1236.91" y2="2637.46" stroke="#796377" stroke-opacity="0.48"/>
<line x1="3291.55" y1="1851.9" x2="1279.38" y2="2735.02" stroke="#796377" stroke-opacity="0.48"/>
<line x1="3334.03" y1="1949.46" x2="1321.86" y2="2832.58" stroke="#796377" stroke-opacity="0.48"/>
<line x1="3384.22" y1="2060.81" x2="1372.06" y2="2943.94" stroke="#796377" stroke-opacity="0.48"/>
<line x1="3434.43" y1="2172.17" x2="1422.26" y2="3055.29" stroke="#796377" stroke-opacity="0.48"/>
<line x1="3484.63" y1="2283.52" x2="1472.46" y2="3166.65" stroke="#796377" stroke-opacity="0.48"/>
<line x1="3534.83" y1="2394.87" x2="1522.66" y2="3278" stroke="#796377" stroke-opacity="0.48"/>
<line x1="3585.03" y1="2506.23" x2="1572.87" y2="3389.36" stroke="#796377" stroke-opacity="0.48"/>
<line x1="3635.24" y1="2617.58" x2="1623.07" y2="3500.71" stroke="#796377" stroke-opacity="0.48"/>
<line x1="3685.44" y1="2728.94" x2="1673.27" y2="3612.06" stroke="#796377" stroke-opacity="0.48"/>
<line x1="3735.64" y1="2840.29" x2="1723.47" y2="3723.42" stroke="#796377" stroke-opacity="0.48"/>
<line x1="3785.84" y1="2951.65" x2="1773.67" y2="3834.77" stroke="#796377" stroke-opacity="0.48"/>
<line x1="3395.48" y1="2682.88" x2="2664.6" y2="610.547" stroke="#796377" stroke-opacity="0.48"/>
<line x1="3285.68" y1="2707.12" x2="2554.81" y2="634.795" stroke="#796377" stroke-opacity="0.48"/>
<line x1="3188.9" y1="2736.62" x2="2458.02" y2="664.292" stroke="#796377" stroke-opacity="0.48"/>
<line x1="3095.63" y1="2809.02" x2="2364.75" y2="736.692" stroke="#796377" stroke-opacity="0.48"/>
<line x1="3002.37" y1="2881.42" x2="2271.49" y2="809.092" stroke="#796377" stroke-opacity="0.48"/>
<line x1="2909.1" y1="2953.82" x2="2178.23" y2="881.492" stroke="#796377" stroke-opacity="0.48"/>
<line x1="2815.84" y1="3026.22" x2="2084.96" y2="953.891" stroke="#796377" stroke-opacity="0.48"/>
<line x1="2722.58" y1="3098.62" x2="1991.7" y2="1026.29" stroke="#796377" stroke-opacity="0.48"/>
<line x1="2629.31" y1="3171.02" x2="1898.43" y2="1098.69" stroke="#796377" stroke-opacity="0.48"/>
<line x1="2536.04" y1="3243.42" x2="1805.17" y2="1171.09" stroke="#796377" stroke-opacity="0.48"/>
<line x1="2442.78" y1="3315.82" x2="1711.9" y2="1243.49" stroke="#796377" stroke-opacity="0.48"/>
<line x1="2349.52" y1="3388.22" x2="1618.64" y2="1315.89" stroke="#796377" stroke-opacity="0.48"/>
<line x1="2256.25" y1="3460.62" x2="1525.38" y2="1388.29" stroke="#796377" stroke-opacity="0.48"/>
<line x1="2162.99" y1="3533.02" x2="1432.11" y2="1460.69" stroke="#796377" stroke-opacity="0.48"/>
<line x1="2069.72" y1="3605.42" x2="1338.85" y2="1533.09" stroke="#796377" stroke-opacity="0.48"/>
<line x1="1976.46" y1="3677.82" x2="1245.58" y2="1605.49" stroke="#796377" stroke-opacity="0.48"/>
<line x1="1883.19" y1="3750.22" x2="1152.32" y2="1677.89" stroke="#796377" stroke-opacity="0.48"/>
<line x1="1789.93" y1="3822.62" x2="1059.05" y2="1750.29" stroke="#796377" stroke-opacity="0.48"/>
<line x1="1696.67" y1="3895.02" x2="965.79" y2="1822.69" stroke="#796377" stroke-opacity="0.48"/>
</svg>
