<svg width="676" height="233" viewBox="0 0 676 233" fill="none" xmlns="http://www.w3.org/2000/svg">
<path d="M-220.375 55.9702L-18.2879 197.862L33.0847 187.041L-162.642 43.8089" stroke="#FD00CE" stroke-width="2"/>
<path d="M-127.414 36.3882L74.673 178.28L126.046 167.459L-69.681 24.2268" stroke="#FD00CE" stroke-width="2"/>
<path d="M-34.457 16.8066L167.63 158.699L219.003 147.877L23.276 4.64528" stroke="#FD00CE" stroke-width="2"/>
<path d="M58.5039 -2.77539L260.591 139.116L311.964 128.295L116.237 -14.9368" stroke="#FD00CE" stroke-width="2"/>
<path d="M151.465 -22.3574L353.552 119.534L404.925 108.713L209.198 -34.5188" stroke="#FD00CE" stroke-width="2"/>
<path d="M260.082 -45.2368L462.169 96.6551L513.542 85.8335L317.815 -57.3982" stroke="#FD00CE" stroke-width="2"/>
<path d="M367.719 -67.9106L569.806 73.9812L621.178 63.1597L425.452 -80.072" stroke="#FD00CE" stroke-width="2"/>
<path d="M-168.523 55.4346L33.5637 197.326L84.9363 186.505L-110.79 43.2732" stroke="#01E6FD" stroke-width="2"/>
<path d="M-75.5625 35.8525L126.525 177.744L177.897 166.923L-17.8295 23.6912" stroke="#01E6FD" stroke-width="2"/>
<path d="M17.3945 16.271L219.482 158.163L270.854 147.341L75.1275 4.10964" stroke="#01E6FD" stroke-width="2"/>
<path d="M110.355 -3.31104L312.443 138.581L363.815 127.759L168.088 -15.4724" stroke="#01E6FD" stroke-width="2"/>
<path d="M203.316 -22.8931L405.404 118.999L456.776 108.177L261.049 -35.0544" stroke="#01E6FD" stroke-width="2"/>
<path d="M311.934 -45.7725L514.021 96.1194L565.393 85.2979L369.667 -57.9338" stroke="#01E6FD" stroke-width="2"/>
<path d="M419.57 -68.4463L621.657 73.4456L673.03 62.624L477.303 -80.6076" stroke="#01E6FD" stroke-width="2"/>
</svg>
