<svg width="1204" height="1204" viewBox="0 0 1204 1204" fill="none" xmlns="http://www.w3.org/2000/svg">
<path d="M273.239 742.109C285.138 727.53 297.366 713.233 308.888 698.371C360.576 631.492 412.309 564.702 463.481 497.495C520.343 422.81 581.106 351.366 644.647 282.376C660.403 265.257 677.099 249.032 693.231 232.241C700.427 224.763 706.635 216.25 714.395 209.478C720.133 204.398 726.906 200.589 734.242 198.378C743.601 195.557 753.666 199.366 758.793 207.691C763.872 215.451 763.731 225.563 758.369 233.182C750.75 244.845 742.143 255.851 733.914 267.091C676.865 345.069 619.768 423.045 562.717 501.028C549.219 519.512 535.721 538.042 522.364 556.62H522.317C518.836 561.182 516.391 566.402 515.074 571.998C529.559 555.867 543.669 539.406 558.578 523.65C626.679 451.551 694.919 379.592 763.306 307.773C774.123 296.345 784.988 284.916 796.322 274.005C808.974 261.871 820.167 260.225 829.526 268.126C838.744 277.908 839.45 293.005 831.125 303.587C818.897 322.071 806.058 340.178 792.841 357.955C765.376 395.015 737.485 431.747 709.785 468.619C708.045 470.877 707.104 473.652 707.151 476.521C709.361 474.828 711.525 473.04 713.547 471.159C738.898 444.869 764.106 418.484 789.503 392.241C793.218 388.431 797.357 383.446 802.014 382.505C809.962 380.295 818.428 380.342 826.328 382.693C834.888 386.973 838.603 397.179 834.794 405.974C829.997 417.826 824.4 429.348 817.957 440.401C813.96 447.785 808.927 454.651 803.189 463.541C813.207 454.417 821.39 446.798 829.714 439.414C835.311 434.475 840.438 427.421 847.022 425.54C855.205 423 864.048 423.377 871.995 426.622C879.944 431.889 882.389 442.424 877.545 450.655C873.5 459.402 868.468 467.68 862.589 475.346C818.144 536.393 773.606 597.348 728.921 658.21C726.71 661.22 724.876 664.465 722.854 667.569L725.629 669.591C736.164 657.317 746.511 644.853 757.327 632.813C803.889 580.843 850.544 528.968 897.292 477.184V477.231C899.738 474.597 902.513 472.34 905.523 470.364C912.907 463.921 924.007 464.109 931.202 470.882C938.445 477.466 939.95 488.33 934.776 496.701C923.677 515.843 911.873 534.655 899.597 553.092C857.175 616.82 814.564 680.451 771.816 743.95L769.841 749.829H769.888C772.522 747.995 775.108 745.972 777.507 743.856C821.717 697.954 865.596 651.769 910.091 606.106C938.311 577.136 967.328 548.963 996.111 520.556L996.158 520.603C1000.49 516.323 1005.14 512.373 1010.08 508.798C1023.06 499.392 1032.37 499.251 1040.79 507.858C1049.82 517.734 1050.81 532.596 1043.24 543.602C981.437 626.471 919.585 709.345 857.7 792.168H857.653C849.422 802.233 841.991 812.956 835.453 824.244C839.639 821.422 843.919 818.741 848.058 815.825C883.943 790.334 919.639 764.561 955.806 739.541V739.494C964.084 733.944 973.208 729.664 982.802 726.842C991.08 722.891 1000.96 724.491 1007.59 730.84C1014.22 737.236 1016.24 747.019 1012.67 755.484C1007.49 773.685 1000.11 791.181 990.657 807.548C973.726 836.143 954.396 863.327 936.101 891.122V891.075C934.361 893.474 933.374 896.296 933.327 899.259C936.149 897.895 939.064 896.719 941.745 895.12C970.152 878.565 998.464 861.822 1026.97 845.455H1027.01C1031.39 843.009 1036.18 841.41 1041.17 840.705C1047.19 838.965 1053.73 840.47 1058.43 844.702C1063.13 848.888 1065.3 855.237 1064.21 861.445C1062.8 880.446 1056.55 898.789 1046.06 914.732C1030.12 941.869 1013.23 968.441 996.771 995.249C995.172 997.883 993.902 1000.71 991.88 1004.56C995.643 1004.84 997.994 1005.22 1000.3 1005.17C1008.44 1004 1016.34 1008.51 1019.49 1016.08C1023.53 1024.22 1020.95 1034.1 1013.47 1039.27C1001.95 1046.98 989.388 1053.1 977.207 1059.73L977.16 1059.68C972.739 1062.79 967.754 1064.95 962.486 1066.08C955.055 1066.97 947.483 1065.94 940.522 1063.12C937.183 1061.09 934.832 1057.85 934.032 1054.04C933.185 1050.28 933.985 1046.28 936.196 1043.13C945.649 1023.89 955.055 1004.61 965.496 985.937C984.732 951.557 1004.67 917.648 1024.29 883.503L1024.24 883.456C1025.7 880.87 1026.12 877.813 1025.51 874.897C1020.38 878.189 1015.11 881.199 1010.22 884.726C972.739 911.675 935.491 939 897.63 965.385H897.677C891.234 969.1 883.85 970.746 876.466 970.088C871.81 970.323 867.342 968.3 864.473 964.585C861.651 960.87 860.805 956.025 862.263 951.558C864.285 941.775 867.812 932.368 872.656 923.668C893.773 886.702 915.643 850.158 937.137 813.475C938.83 810.606 940.1 807.455 941.558 804.398L939.394 802.61C936.478 804.868 933.515 807.031 930.646 809.383C885.872 846.726 841.523 884.586 796.087 921.128V921.175C778.827 933.921 760.814 945.631 742.142 956.214C734.476 962.093 723.894 962.469 715.852 957.108C707.245 951.276 703.153 940.694 705.693 930.629C707.151 922.963 710.067 915.626 713.265 905.091C708.75 908.807 705.881 910.735 703.482 913.181C662.519 955.227 621.554 997.32 580.687 1039.46C576.689 1043.55 573.114 1048.06 569.352 1052.34C557.312 1066.22 545.554 1069.27 533.797 1061.56H533.75C522.415 1051.97 519.311 1035.74 526.366 1022.62C536.383 1004.89 547.436 987.769 557.877 970.225C562.533 962.418 566.719 954.376 571.14 946.474L568.6 944.64C559.194 954.046 549.835 963.546 540.334 972.906C526.037 986.969 512.068 1001.36 497.113 1014.67H497.16C491.328 1019.37 484.508 1022.71 477.171 1024.36C469.975 1027.09 461.886 1025.96 455.725 1021.35C449.517 1016.79 446.131 1009.36 446.601 1001.69L445.943 992.895C441.898 996.752 439.076 999.103 436.678 1001.78C412.457 1029.11 388.471 1056.62 363.967 1083.71C359.499 1088.27 354.137 1091.85 348.212 1094.15C339.558 1098.62 328.975 1096.6 322.533 1089.31C315.666 1081.88 314.631 1070.73 320.087 1062.17C327.988 1047.78 337.254 1034.14 346.143 1020.36C368.247 986.075 390.352 951.79 412.551 917.551C414.056 915.199 414.526 912.377 413.82 909.649C411.61 911.483 409.541 913.365 407.518 915.387C383.862 941.725 360.111 968.062 336.689 994.634V994.681C332.174 1000.18 328.177 1006.11 324.79 1012.37C320.652 1021.96 310.681 1027.65 300.335 1026.33C290.129 1024.69 281.851 1017.16 279.171 1007.19C275.361 996.47 277.101 984.571 283.733 975.401C303.439 944.642 323.287 913.977 342.946 883.22C355.597 863.42 368.013 843.525 380.571 823.632L378.313 821.844C371.964 828.805 365.615 835.671 359.313 842.679C332.317 872.826 305.368 902.973 278.467 933.167C269.06 946.054 252.317 951.274 237.267 946.054C234.21 945.113 228.237 948.735 225.556 951.886C214.739 964.772 205.145 978.694 194.186 991.44H194.233C189.953 996.66 184.262 1000.56 177.819 1002.68C171.329 1004.75 164.227 1003.34 159.006 998.87C153.833 994.449 151.34 987.63 152.469 980.857C155.15 969.099 159.571 957.812 165.59 947.372C171.798 935.332 179.653 924.138 186.613 912.475C187.507 910.453 188.165 908.336 188.589 906.173L182.333 903.727V903.68C174.291 901.329 167.707 895.544 164.414 887.878C161.075 880.211 161.31 871.464 165.073 863.985C188.777 806.795 212.48 749.605 236.136 692.415C236.654 690.863 237.077 689.264 237.359 687.618L234.867 686.254L144.473 812.397L139.77 810.375C140.898 805.296 141.651 800.122 143.25 795.231C157.359 755.819 175.326 717.865 196.865 681.932C237.265 610.257 281.804 540.98 330.292 474.483C380.192 406.758 431.409 340.068 483.995 274.366C525.664 222.491 570.533 173.203 614.172 122.975C618.451 118.131 623.437 113.992 628.94 110.654C633.737 106.797 640.368 106.28 645.73 109.337C651.044 112.394 653.913 118.414 652.925 124.48C652.455 131.582 650.292 138.449 646.529 144.516C623.625 179.978 600.203 215.063 576.734 250.148C526.599 325.069 474.676 398.866 426.56 475.055C377.506 552.798 332.12 632.803 285.234 711.906C279.825 721.03 275.404 730.672 270.513 740.125L273.239 742.109Z" fill="#FD00CE"/>
</svg>
