<svg width="672" height="672" viewBox="0 0 672 672" fill="none" xmlns="http://www.w3.org/2000/svg">
<path d="M561.038 278.725C556.129 273.554 549.488 270.404 542.375 269.879C526.021 269.171 509.719 272.189 494.704 278.673C490.478 280.169 486.278 281.771 482.104 283.451C488.535 278.279 494.862 273.003 501.083 267.622L501.057 267.595C502.894 266.047 503.472 263.448 502.474 261.243C501.503 259.038 499.219 257.752 496.83 258.04C484.572 260.377 473.048 265.6 463.204 273.291C451.733 280.799 441.023 287.702 429.735 295.971L425.273 299.279C432.256 288.359 439.159 277.387 445.984 266.362C452.258 256.203 458.19 245.86 464.542 235.754C468.952 228.719 473.389 221.737 477.484 214.518V214.491C482.34 206.301 486.382 197.639 489.48 188.635C492.499 181.39 492.788 173.305 490.32 165.876C485.595 157.293 475.305 153.486 466.144 156.873C454.2 160.758 443.149 166.927 433.593 175.064C429.42 178.266 425.351 181.574 421.361 184.987C420.022 178.162 417.476 171.651 413.827 165.719C400.702 148.551 378.784 140.624 357.704 145.428C331.061 149.785 305.966 160.915 284.86 177.794C282.366 179.658 279.898 181.548 277.483 183.517C273.913 181.81 270.317 180.209 266.694 178.66C244.802 168.58 220.94 163.488 196.84 163.75C176.47 163.724 157.281 173.227 144.943 189.449C136.911 202.993 134.706 219.19 138.827 234.389C142.948 251.32 149.773 267.438 159.039 282.19C164.526 291.456 170.484 300.433 176.916 309.096C165.287 329.676 155.575 351.306 147.884 373.671C146.02 378.869 144.629 384.198 143.736 389.631C139.772 394.855 135.966 400.158 132.239 405.539C124.259 417.01 116.988 428.98 110.504 441.37C107.459 447.25 104.624 453.261 102.13 459.378V459.404C99.8461 463.998 99.3998 469.274 100.87 474.209C104.23 483.081 116.279 481.244 123.366 479.537C134.759 476.834 146.046 472.949 157.124 469.195V469.221C185.526 459.43 213.22 447.775 240.048 434.256L238.185 440.215C237.108 443.811 236.163 447.433 235.271 451.082L235.166 452.054C226.923 461.136 218.996 470.481 211.357 480.115C209.834 482.215 209.939 485.076 211.567 487.098C213.614 489.513 217.184 489.854 219.652 487.912C244.537 469.615 268.346 449.954 291.025 429.033L300.002 420.948C308.297 425.909 316.776 430.582 325.465 434.86C295.566 480.982 266.166 527.496 233.172 571.492H233.146C231.965 573.224 231.912 575.481 232.989 577.266C234.091 579.025 236.112 580.023 238.186 579.76C242.019 579.34 245.615 577.791 248.529 575.324C249.658 574.405 250.366 573.066 250.419 571.623C250.498 570.179 249.946 568.761 248.896 567.738C279.11 526.027 306.436 482.347 334.234 439.009H334.26C345.863 444.286 357.832 448.774 370.039 452.397C386.865 457.595 404.505 459.616 422.04 458.382C428.314 457.91 434.509 456.702 440.494 454.733C440.1 459.17 447.056 459.8 447.791 455.258L448.342 451.373C454.485 448.302 459.551 443.472 462.938 437.513C469.08 424.152 468.87 408.744 462.386 395.54L463.331 395.12C475.853 389.555 487.848 382.913 499.215 375.275C513.547 365.904 527.066 355.377 539.692 343.801C553.5 332.829 563.133 317.446 566.992 300.226C568.068 292.561 565.921 284.763 561.038 278.725ZM155.715 402.232L155.006 401.734L154.953 401.707L154.901 401.655L154.297 400.92L154.218 400.736L153.772 399.739L153.719 399.529L153.299 396.72L153.221 395.854L153.247 394.882L153.273 394.515C163.799 380.392 175.113 366.847 186.768 353.696C191.388 348.499 196.113 343.406 200.97 338.419C209.921 348.289 219.397 357.713 229.136 366.769C224.988 370.024 220.788 373.2 216.51 376.298H216.484C206.062 383.989 194.906 390.578 183.173 396.038C177.844 398.584 172.279 400.579 166.582 401.997L162.54 402.784H162.513C161.621 402.916 160.702 402.994 159.81 403.021L156.948 402.706C157.972 402.916 155.032 401.787 155.715 402.259L155.715 402.232ZM229.87 354.694C222.205 347.37 214.697 339.757 207.452 331.883C216.403 323.063 225.801 314.715 235.592 306.892C235.199 309.334 234.857 311.775 234.595 314.243C233.072 329.179 234.647 344.273 239.241 358.553L236.432 360.889L229.87 354.694ZM290.507 199.872C296.833 203.494 303.028 207.353 309.092 211.422L308.304 211.684H308.278C290.087 218.72 274.232 230.795 262.603 246.518C251.972 259.932 243.966 275.236 239.083 291.669C225.538 301.618 212.728 312.564 200.758 324.402C196.374 319.389 192.121 314.27 188.027 309.046C192.883 300.409 197.976 291.931 203.357 283.609H203.33C218.057 260.536 234.83 238.853 253.521 218.851C261.763 210.057 270.478 201.762 279.692 193.966C283.341 195.882 286.937 197.825 290.507 199.846L290.507 199.872ZM396.192 261.061H396.166C393.699 259.774 391.179 258.619 388.606 257.622C382.726 255.338 376.637 253.632 370.415 252.529L368.814 250.823L368.84 250.797C383.094 234.364 397.689 218.142 413.465 203.1L413.439 203.127C411.837 221.711 406.693 239.824 398.293 256.467L396.192 261.061ZM407.323 283.163C409.895 286.838 411.785 290.96 412.888 295.317C413.334 297.207 413.649 299.097 413.859 301.04L410.919 305.502C406.089 297.653 400.918 290.015 395.405 282.586L399.526 275.13C402.466 277.44 405.091 280.145 407.323 283.163ZM406.483 376.847L405.879 378.842H405.853C405.328 380.443 404.671 381.992 403.91 383.514L403.779 383.724L403.201 384.669L401.968 386.454L400.629 388.108L400.55 388.187L399.579 389.106H399.605C398.582 390.024 397.505 390.891 396.35 391.652L396.035 391.862L395.458 392.177L393.279 393.253L391.336 394.041L389.761 394.566L385.666 395.432C384.17 395.668 382.648 395.799 381.125 395.904L380.548 395.931H379.734C378.815 395.931 377.87 395.904 376.951 395.852C373.486 395.642 370.048 395.169 366.635 394.434L365.375 394.146L365.217 394.093L364.981 394.041L363.695 393.699C372.62 380.076 381.544 366.478 390.522 352.855H390.496C395.379 350.466 399.973 347.578 404.225 344.192L404.409 344.323L405.039 346.449L405.013 346.423C406.483 351.883 407.349 357.474 407.611 363.118C407.69 364.562 407.69 364.378 407.69 365.56C407.69 366.583 407.664 367.607 407.611 368.631V368.605C407.48 370.678 407.244 372.7 406.903 374.721L406.64 376.033L406.483 376.847ZM346.37 386.901L345.084 386.271L344.611 386.008L342.17 384.617L341.173 384.013C347.551 378.369 353.956 372.752 360.414 367.187L362.462 365.428L371.728 359.784L375.823 358.63C368.735 369.287 361.621 379.945 354.534 390.628C351.725 389.526 349.021 388.266 346.344 386.901L346.37 386.901ZM300.512 405.354L300.223 405.249L300.144 405.223L307.101 399.422L300.512 405.354ZM248.536 297.129L248.825 296.919C271.19 280.408 296.836 268.884 324.029 263.135L330.066 262.112L330.04 262.138C327.074 268.097 323.609 273.793 319.671 279.148C306.468 281.116 294.839 288.965 288.066 300.463C285.257 306.054 283.892 312.249 284.129 318.523L274.364 327.789C265.938 335.717 257.118 343.277 248.35 350.837L248.14 350.049C247.563 347.792 247.09 345.534 246.67 343.25C245.646 337.869 245.043 332.409 244.859 326.949C244.596 316.895 245.833 306.841 248.536 297.129ZM297.992 227.698L298.779 227.225L300.013 226.49L302.559 225.099C304.423 224.102 306.339 223.209 308.282 222.369H308.308C311.589 220.847 315.08 219.77 318.677 219.193L319.779 219.035C325.554 223.314 331.146 227.803 336.632 232.475L336.816 234.523C337.052 240.324 336.186 246.099 334.322 251.586C331.487 251.901 328.652 252.268 325.843 252.741C300.197 257.466 275.732 267.283 253.919 281.642C257.121 274.161 260.98 266.994 265.496 260.222C271.979 250.431 279.88 241.663 288.963 234.208C291.851 231.872 294.841 229.693 297.992 227.698ZM295.209 327.738L295.157 327.581L294.894 326.557V326.531C294.5 324.982 294.238 323.381 294.08 321.78C305.053 311.306 315.238 299.992 324.53 287.996L327.26 287.655C323.191 292.958 319.149 298.312 315.132 303.667L313.032 306.45L309.935 307.867H309.961C302.112 312.356 296.967 320.441 296.258 329.471L295.97 329.865L295.917 329.733L295.209 327.738ZM295.55 307.29C296.6 304.586 298.097 302.092 299.96 299.887C302.454 297.078 305.447 294.742 308.754 292.983C304.528 297.892 300.117 302.643 295.55 307.29ZM317.521 315.768L318.414 315.453L319.884 315.112H319.91C323.953 314.246 328.101 314.036 332.221 314.534C341.278 315.453 350.203 317.527 358.734 320.729C350.255 331.728 341.303 342.333 332.011 352.649L329.36 352.256L324.608 351.284L324.53 351.258L324.293 351.206L323.138 350.891L320.513 350.129C317.495 349.158 314.581 347.951 311.746 346.533L311.273 346.271L310.591 345.903L308.727 344.774L307.415 343.882C307.047 342.333 306.758 340.784 306.548 339.236L306.286 336.716L306.233 335.429L306.207 335.141V335.062C306.207 333.671 306.286 332.306 306.417 330.941C310.013 325.848 313.636 320.808 317.311 315.821L317.521 315.768ZM350.308 353.253L349.573 353.305L346.974 353.437L345.688 353.489H344.086L348.313 348.633C355.111 340.705 361.7 332.568 368 324.247V324.22C373.486 326.478 378.868 329.024 384.065 331.859C372.62 338.684 361.359 345.798 350.308 353.253ZM335.555 363.044L336.133 363.096L334.348 364.357L335.555 363.044ZM313.637 358.083C317.049 359.369 320.566 360.445 324.163 361.233L319.595 366.089C317.417 363.569 315.422 360.891 313.637 358.083ZM392.805 325.008L391.807 324.456C386.164 321.28 380.31 318.314 374.298 315.689C376.293 312.906 378.236 310.098 380.152 307.289V307.263C385.56 312.119 390.337 317.631 394.406 323.669L392.805 325.008ZM365.268 312.014C356.055 308.496 346.473 306.055 336.708 304.663C333.165 304.191 329.568 303.981 325.972 304.033C330.067 298.495 334.215 292.982 338.415 287.549V287.575C346.552 288.31 354.453 290.672 361.646 294.505C365.557 296.473 369.284 298.757 372.802 301.329C370.361 304.926 367.841 308.497 365.268 312.014ZM295.575 346.717L298.41 349.315H298.383C301.323 358.24 306.074 366.457 312.348 373.466L312.427 373.544C305.576 380.606 298.646 387.588 291.637 394.492L284.497 398.508L284.05 398.246L281.478 396.723V396.697C278.459 394.86 275.572 392.786 272.841 390.555L270.899 388.901L270.374 388.402H270.348C278.039 374.096 286.439 360.183 295.548 346.717L295.575 346.717ZM404.358 315.558L402.179 317.317V317.29C400.105 314.324 397.874 311.463 395.485 308.733C392.414 305.242 389.133 301.961 385.642 298.916C387.296 296.343 388.897 293.745 390.472 291.093L391.47 292.458C396.405 299.309 401.103 306.371 405.592 313.642L404.358 315.558ZM378.265 293.088C368.527 285.895 357.265 281.012 345.374 278.781L346.477 277.416C350.913 271.983 355.376 266.575 359.917 261.22C362.279 261.456 364.642 261.745 366.978 262.139C373.068 268.885 378.896 275.868 384.435 283.06C382.466 286.446 380.392 289.78 378.265 293.088ZM341.043 270.355L334.979 277.837C333.877 277.81 332.774 277.81 331.698 277.863L331.672 277.837C335.163 272.482 338.208 266.838 340.781 260.984C343.537 260.8 346.319 260.695 349.102 260.695C346.398 263.898 343.694 267.127 341.017 270.355L341.043 270.355ZM285.052 330.52L285.76 329.838L285.734 329.864C286.627 333.04 287.939 336.111 289.619 338.999C280.274 352.649 271.376 366.667 263.448 381.156C261.899 379.292 260.482 377.35 259.117 375.329L257.857 373.386L256.807 371.627C255.809 369.895 254.891 368.11 254.024 366.299C253.158 364.487 252.344 362.65 251.609 360.786C263.054 351.021 274.185 340.863 285.026 330.52L285.052 330.52ZM389.319 274.529C387.062 271.641 384.752 268.807 382.39 266.024L385.015 266.995L384.988 266.969C387.272 267.862 389.53 268.885 391.682 270.014L389.319 274.529ZM344.327 250.852C345.193 247.623 345.797 244.289 346.112 240.955C349.629 244.21 353.068 247.544 356.428 250.957C352.412 250.72 348.37 250.694 344.327 250.852ZM273.269 404.706C268.465 407.331 263.635 409.93 258.805 412.476C260.827 407.777 262.953 403.157 265.184 398.563C267.757 400.768 270.46 402.842 273.269 404.706ZM333.014 411.295C326.477 410.875 319.941 410.035 313.51 408.801C320.02 402.921 326.556 397.041 333.093 391.187C338.054 394.364 343.278 397.094 348.712 399.404L340.653 411.61C338.107 411.558 335.561 411.453 333.041 411.295L333.014 411.295ZM333.539 422.451L330.782 426.678C327.134 424.919 323.511 423.108 319.941 421.218C324.456 421.821 329.024 422.215 333.565 422.451H333.539ZM357.741 402.738H357.768C369.606 406.911 382.443 407.305 394.544 403.893C407.932 398.931 417.067 386.462 417.775 372.209C418.405 366.145 418.248 360.003 417.303 353.966C422.054 357.877 426.595 362.077 430.874 366.513C433.945 375.359 436.439 384.39 438.355 393.551C435.389 394.627 432.423 395.651 429.43 396.648C413.786 401.872 397.747 405.809 381.472 408.46C373.177 409.799 364.855 410.77 356.481 411.295L352.071 411.532L357.741 402.738ZM444.154 382.84C445.65 385.045 447.068 387.355 448.38 389.718L445.913 390.689C445.388 388.09 444.81 385.465 444.18 382.866L444.154 382.84ZM412.969 337.69L412.418 336.273C413.652 334.855 414.78 333.359 415.83 331.784C418.009 335.958 420.057 340.158 422.025 344.436C419.085 342.1 416.067 339.869 412.995 337.716L412.969 337.69ZM435.859 183.392C438.641 181.161 441.476 178.982 444.39 176.908L448.354 174.126L450.322 172.84L451.294 172.21L452.212 171.632V171.658C456.806 168.745 461.767 166.408 466.939 164.676L467.044 164.649L467.831 164.439L469.406 164.072L472.714 163.626L473.396 163.599L474.787 163.652L476.152 163.809L476.808 163.941H476.835L476.913 163.967L479.276 164.886L479.801 165.201L481.035 166.119L481.271 166.329L481.455 166.513L482.4 167.589L482.951 168.351C482.452 167.616 483.056 168.613 483.108 168.718L483.555 169.689L483.87 170.661V170.634C484.788 177.932 483.476 185.361 480.09 191.897C476.415 200.454 472.083 208.723 467.122 216.625C463.368 222.82 459.326 228.779 455.546 234.974C447.881 247.6 440.163 260.148 432.235 272.616C428.718 278.155 425.174 283.668 421.604 289.18L421.578 289.154C419.793 284.009 417.142 279.205 413.729 274.926C410.973 271.54 407.77 268.547 404.2 266.001C411.235 252.01 416.617 237.258 420.265 222.032C422.391 213.081 423.179 203.841 422.654 194.654C426.959 190.795 431.369 187.041 435.884 183.419L435.859 183.392ZM315.712 169.269C327.131 163.048 339.442 158.533 352.199 155.882C363.513 153.204 375.326 153.362 386.561 156.328C394.724 158.769 401.733 164.072 406.301 171.265C408.401 174.756 410.028 178.536 411.21 182.447C412.102 185.676 412.706 189.01 413.047 192.344C396.064 208.225 379.972 224.973 364.8 242.56L362.857 244.765C357.292 239.2 351.543 233.819 345.637 228.648V228.622C344.561 220.563 339.337 213.633 331.882 210.405C328.338 209.118 324.558 208.62 320.805 208.961C309.989 201.244 298.649 194.287 286.863 188.171C295.92 181.057 305.579 174.729 315.712 169.269ZM145.112 220.142C144.692 213.185 145.794 206.229 148.367 199.772C151.359 193 156.137 187.172 162.174 182.894C181.127 171.317 204.017 168.115 225.411 174.074C240.977 177.329 256.097 182.474 270.43 189.403C255.152 202.791 241.056 217.438 228.272 233.214C210.869 254.345 195.276 276.92 181.652 300.676C173.699 289.914 166.559 278.574 160.232 266.787C151.911 252.507 146.739 236.6 145.112 220.142ZM164.275 358.036C169.945 344.229 176.324 330.736 183.358 317.559L186.062 320.998C188.739 324.331 191.469 327.613 194.252 330.868C190.787 334.386 187.375 337.982 184.015 341.605C175.772 350.503 167.74 359.638 159.97 369.009C161.361 365.334 162.778 361.685 164.275 358.036ZM111.013 469.837C111.223 470.257 111.617 470.598 111.013 469.837V469.837ZM178.475 449.834C164.458 455.347 150.231 460.255 135.766 464.586C131.068 466.004 127.471 467.212 123.35 468.262C121.302 468.787 119.255 469.259 117.155 469.6L114.32 469.942L113.322 469.994C114.11 469.942 112.64 469.942 112.377 469.942L111.275 469.81V469.837L110.96 469.732L110.907 469.469L110.934 469.259C111.905 463.904 113.821 458.733 116.577 454.034C122.352 441.854 128.968 430.094 136.344 418.807C139.284 414.265 142.329 409.75 145.452 405.314C146.45 407.152 147.815 408.779 149.469 410.039C153.406 412.559 158.158 413.53 162.778 412.795C168.815 412.008 174.721 410.354 180.339 407.939C186.193 405.655 191.916 402.978 197.402 399.933C209.214 393.344 220.449 385.836 231.08 377.463L236.304 373.368L236.645 373.683C243.523 379.904 250.61 385.889 257.882 391.664C253.288 400.721 249.062 409.961 245.387 419.436C223.547 430.566 201.313 440.857 178.475 449.834ZM262.657 422.691L257.276 427.915L250.398 434.609L252.708 427.863L262.657 422.691ZM268.747 433.664C275.519 427.075 282.423 420.67 289.51 414.396L290.035 414.737L288.04 416.522C281.661 422.297 275.231 428.02 268.746 433.69L268.747 433.664ZM434.912 445.949C435.516 445.765 434.256 446.132 434.151 446.159L431.369 446.841C429.295 447.314 427.195 447.655 425.069 447.944C423.074 448.232 421.052 448.416 419.057 448.574C416.931 448.731 414.569 448.81 413.177 448.836C404.699 448.862 396.272 448.127 387.925 446.605C378.134 444.689 368.5 441.985 359.128 438.468C352.513 436.131 346.003 433.533 339.599 430.698L344.297 423.401L344.796 422.692C352.487 422.639 360.126 422.167 367.581 421.406H367.555C392.413 418.754 416.826 413.032 440.292 404.448C441.237 410.696 441.867 416.996 442.182 423.296C442.497 429.99 442.366 436.684 441.815 443.351L441.526 443.482C439.741 444.296 437.903 445.031 436.013 445.635L434.912 445.949ZM456.437 426.602L456.227 427.469L455.833 428.729L454.862 431.144L454.495 431.931L454.127 432.64L452.5 435.055L451.03 436.84L449.743 438.074L449.612 438.179V438.231C450.242 425.999 449.665 413.714 447.827 401.613L452.946 399.565C454.862 404.526 456.201 409.724 456.883 415.026C457.435 418.885 457.277 422.823 456.437 426.629V426.602ZM555.712 290.838L555.922 291.652L556.237 293.306L556.499 295.799L556.525 296.403L556.499 297.322V297.348C556.42 299.028 556.21 300.708 555.843 302.362L555.633 303.202L555.265 304.462L554.373 307.008C553.69 308.767 552.903 310.499 552.01 312.179L551.564 313.019L550.803 314.279L549.228 316.799C548.02 318.663 546.708 320.448 545.343 322.207C539.778 329.163 533.557 335.542 526.732 341.264C519.933 347.17 512.767 352.683 505.469 357.933C499.694 362.081 493.788 366.07 487.882 370.008L486.228 371.085L486.018 371.216L485.23 371.688L480.899 374.208C477.959 375.888 474.967 377.49 471.948 379.012C467.302 381.401 462.603 383.606 457.825 385.706C455.988 382.267 453.993 378.986 451.972 375.967L451.945 376.02C447.352 369.247 442.128 362.921 436.301 357.146C432.494 346.777 428.032 336.671 422.992 326.853C429.764 322.26 436.484 317.613 443.125 312.889C454.229 307.586 465.438 302.546 476.752 297.638C483.104 294.881 489.483 292.23 495.967 289.789C499.773 288.371 503.605 287.032 507.464 285.825L510.325 284.932L510.614 284.854L510.824 284.801L512.268 284.407L518.489 282.832L518.463 282.806C522.321 281.887 526.232 281.205 530.144 280.759C531.929 280.549 533.688 280.417 535.473 280.365H535.788L537.048 280.391L539.935 280.549L539.962 280.522C541.537 280.654 543.085 280.89 544.634 281.205L544.713 281.231H544.739L545.815 281.546L548.178 282.439L549.149 282.885L549.28 282.937L550.908 284.014L552.273 285.116C551.564 284.512 553.113 286.061 553.375 286.402L554.347 287.767L555.082 289.211L555.712 290.838Z" fill="#9747FF"/>
</svg>
