<svg width="9500" height="5752" viewBox="0 0 9500 5752" fill="none" xmlns="http://www.w3.org/2000/svg">
<path d="M7675.05 1988C7675.06 1961.49 7696.55 1940 7723.06 1940V1940C7723.06 1479.77 8085.03 1103.55 8539.06 1078.45V595L8029.96 372.084C8026.13 370.406 8022.94 367.539 8020.86 363.908V363.908C7997.45 322.967 8040.07 275.966 8083.1 295.277L8635.06 543V1078.45C9089.09 1103.56 9451.06 1479.79 9451.06 1940V1940C9477.57 1940 9499.06 1961.49 9499.06 1988V2274C9499.06 2301.61 9476.67 2324 9449.06 2324H9380.74L9262 4666C9262 4666 9008.51 4906.5 8593.07 4906.5C8177.62 4906.5 7924.13 4666 7924.13 4666L7793.27 2324H7725.01C7697.39 2324 7675 2301.61 7675.01 2273.99L7675.05 1988ZM7819.06 1940H8539.06V1174.45C8137.97 1199.41 7819.06 1532.72 7819.06 1940ZM8635.06 1174.45V1940H9355.06C9355.06 1532.72 9036.15 1199.4 8635.06 1174.45ZM9403.06 2036H8635.06V2228H9403.06V2036ZM8014.05 4611C8014.05 4611 8200.12 4812.5 8593.07 4812.5C8986.01 4812.5 9172.2 4611 9172.2 4611L9284.5 2324H8635.06L8635.06 2510L9090.56 2284.5H9319V2409.5L8635.06 2743.5L8635.06 4440C8635.06 4466.51 8613.57 4488 8587.06 4488V4488C8560.55 4488 8539.06 4466.51 8539.06 4440L8539.06 2788L7906.69 3099V2867.5L8539.06 2550V2324L7906.69 2638.5L7889.57 2324L8014.05 4611ZM7771.06 2228H8539.06V2036H7771.06V2228Z" fill="#01E6FD"/>
<path d="M2759.05 2409C2759.06 2382.49 2780.55 2361 2807.06 2361V2361C2807.06 1900.77 3169.03 1524.55 3623.06 1499.45V1016L3113.96 793.084C3110.13 791.406 3106.94 788.539 3104.86 784.908V784.908C3081.45 743.967 3124.07 696.966 3167.1 716.277L3719.06 964V1499.45C4173.09 1524.56 4535.06 1900.79 4535.06 2361V2361C4561.57 2361 4583.06 2382.49 4583.06 2409V2695C4583.06 2722.61 4560.67 2745 4533.06 2745H4464.74L4346 5087C4346 5087 4092.51 5327.5 3677.07 5327.5C3261.62 5327.5 3008.13 5087 3008.13 5087L2877.27 2745H2809.01C2781.39 2745 2759 2722.61 2759.01 2694.99L2759.05 2409ZM2903.06 2361H3623.06V1595.45C3221.97 1620.41 2903.06 1953.72 2903.06 2361ZM3719.06 1595.45V2361H4439.06C4439.06 1953.72 4120.15 1620.4 3719.06 1595.45ZM4487.06 2457H3719.06V2649H4487.06V2457ZM3098.05 5032C3098.05 5032 3284.12 5233.5 3677.07 5233.5C4070.01 5233.5 4256.2 5032 4256.2 5032L4368.5 2745H3719.06L3719.06 2931L4174.56 2705.5H4403V2830.5L3719.06 3164.5L3719.06 4861C3719.06 4887.51 3697.57 4909 3671.06 4909V4909C3644.55 4909 3623.06 4887.51 3623.06 4861L3623.06 3209L2990.69 3520V3288.5L3623.06 2971V2745L2990.69 3059.5L2973.57 2745L3098.05 5032ZM2855.06 2649H3623.06V2457H2855.06V2649Z" fill="#01E6FD"/>
<path d="M4468.05 2833C4468.06 2806.49 4489.55 2785 4516.06 2785V2785C4516.06 2324.77 4878.03 1948.55 5332.06 1923.45V1440L4822.96 1217.08C4819.13 1215.41 4815.94 1212.54 4813.86 1208.91V1208.91C4790.45 1167.97 4833.07 1120.97 4876.1 1140.28L5428.06 1388V1923.45C5882.09 1948.56 6244.06 2324.79 6244.06 2785V2785C6270.57 2785 6292.06 2806.49 6292.06 2833V3119C6292.06 3146.61 6269.67 3169 6242.06 3169H6173.74L6055 5511C6055 5511 5801.51 5751.5 5386.07 5751.5C4970.62 5751.5 4717.13 5511 4717.13 5511L4586.27 3169H4518.01C4490.39 3169 4468 3146.61 4468.01 3118.99L4468.05 2833ZM4612.06 2785H5332.06V2019.45C4930.97 2044.41 4612.06 2377.72 4612.06 2785ZM5428.06 2019.45V2785H6148.06C6148.06 2377.72 5829.15 2044.4 5428.06 2019.45ZM6196.06 2881H5428.06V3073H6196.06V2881ZM4807.05 5456C4807.05 5456 4993.12 5657.5 5386.07 5657.5C5779.01 5657.5 5965.2 5456 5965.2 5456L6077.5 3169H5428.06L5428.06 3355L5883.56 3129.5H6112V3254.5L5428.06 3588.5L5428.06 5285C5428.06 5311.51 5406.57 5333 5380.06 5333V5333C5353.55 5333 5332.06 5311.51 5332.06 5285L5332.06 3633L4699.69 3944V3712.5L5332.06 3395V3169L4699.69 3483.5L4682.57 3169L4807.05 5456ZM4564.06 3073H5332.06V2881H4564.06V3073Z" fill="#01E6FD"/>
<path d="M6130.05 2409C6130.06 2382.49 6151.55 2361 6178.06 2361V2361C6178.06 1900.77 6540.03 1524.55 6994.06 1499.45V1016L6484.96 793.084C6481.13 791.406 6477.94 788.539 6475.86 784.908V784.908C6452.45 743.967 6495.07 696.966 6538.1 716.277L7090.06 964V1499.45C7544.09 1524.56 7906.06 1900.79 7906.06 2361V2361C7932.57 2361 7954.06 2382.49 7954.06 2409V2695C7954.06 2722.61 7931.67 2745 7904.06 2745H7835.74L7717 5087C7717 5087 7463.51 5327.5 7048.07 5327.5C6632.62 5327.5 6379.13 5087 6379.13 5087L6248.27 2745H6180.01C6152.39 2745 6130 2722.61 6130.01 2694.99L6130.05 2409ZM6274.06 2361H6994.06V1595.45C6592.97 1620.41 6274.06 1953.72 6274.06 2361ZM7090.06 1595.45V2361H7810.06C7810.06 1953.72 7491.15 1620.4 7090.06 1595.45ZM7858.06 2457H7090.06V2649H7858.06V2457ZM6469.05 5032C6469.05 5032 6655.12 5233.5 7048.07 5233.5C7441.01 5233.5 7627.2 5032 7627.2 5032L7739.5 2745H7090.06L7090.06 2931L7545.56 2705.5H7774V2830.5L7090.06 3164.5L7090.06 4861C7090.06 4887.51 7068.57 4909 7042.06 4909V4909C7015.55 4909 6994.06 4887.51 6994.06 4861L6994.06 3209L6361.69 3520V3288.5L6994.06 2971V2745L6361.69 3059.5L6344.57 2745L6469.05 5032ZM6226.06 2649H6994.06V2457H6226.06V2649Z" fill="#FD00CE"/>
<path d="M1261.05 1754C1261.06 1727.49 1282.55 1706 1309.06 1706V1706C1309.06 1245.77 1671.03 869.547 2125.06 844.453V361L1615.96 138.084C1612.13 136.406 1608.94 133.539 1606.86 129.908V129.908C1583.45 88.967 1626.07 41.9655 1669.1 61.2775L2221.06 309V844.453C2675.09 869.557 3037.06 1245.79 3037.06 1706V1706C3063.57 1706 3085.06 1727.49 3085.06 1754V2040C3085.06 2067.61 3062.67 2090 3035.06 2090H2966.74L2848 4432C2848 4432 2594.51 4672.5 2179.07 4672.5C1763.62 4672.5 1510.13 4432 1510.13 4432L1379.27 2090H1311.01C1283.39 2090 1261 2067.61 1261.01 2039.99L1261.05 1754ZM1405.06 1706H2125.06V940.453C1723.97 965.412 1405.06 1298.72 1405.06 1706ZM2221.06 940.453V1706H2941.06C2941.06 1298.72 2622.15 965.4 2221.06 940.453ZM2989.06 1802H2221.06V1994H2989.06V1802ZM1600.05 4377C1600.05 4377 1786.12 4578.5 2179.07 4578.5C2572.01 4578.5 2758.2 4377 2758.2 4377L2870.5 2090H2221.06L2221.06 2276L2676.56 2050.5H2905V2175.5L2221.06 2509.5L2221.06 4206C2221.06 4232.51 2199.57 4254 2173.06 4254V4254C2146.55 4254 2125.06 4232.51 2125.06 4206L2125.06 2554L1492.69 2865V2633.5L2125.06 2316V2090L1492.69 2404.5L1475.57 2090L1600.05 4377ZM1357.06 1994H2125.06V1802H1357.06V1994Z" fill="#FD00CE"/>
<path d="M0.0520782 2409C0.0562162 2382.49 21.5487 2361 48.0596 2361V2361C48.0596 1900.77 410.033 1524.55 864.06 1499.45V1016L354.96 793.084C351.129 791.406 347.938 788.539 345.861 784.908V784.908C322.445 743.967 365.065 696.966 408.095 716.277L960.06 964V1499.45C1414.09 1524.56 1776.06 1900.79 1776.06 2361V2361C1802.57 2361 1824.06 2382.49 1824.06 2409V2695C1824.06 2722.61 1801.67 2745 1774.06 2745H1705.74L1587 5087C1587 5087 1333.51 5327.5 918.066 5327.5C502.62 5327.5 249.133 5087 249.133 5087L118.27 2745H50.0074C22.3901 2745 0.00312861 2722.61 0.00743924 2694.99L0.0520782 2409ZM144.06 2361H864.06V1595.45C462.966 1620.41 144.06 1953.72 144.06 2361ZM960.06 1595.45V2361H1680.06C1680.06 1953.72 1361.15 1620.4 960.06 1595.45ZM1728.06 2457H960.06V2649H1728.06V2457ZM339.053 5032C339.053 5032 525.12 5233.5 918.066 5233.5C1311.01 5233.5 1497.2 5032 1497.2 5032L1609.5 2745H960.064L960.06 2931L1415.56 2705.5H1644V2830.5L960.06 3164.5L960.063 4861C960.064 4887.51 938.573 4909 912.063 4909V4909C885.554 4909 864.064 4887.51 864.063 4861L864.06 3209L231.689 3520V3288.5L864.06 2971V2745L231.689 3059.5L214.57 2745L339.053 5032ZM96.0596 2649H864.06V2457H96.0596V2649Z" fill="#FD00CE"/>
</svg>
