<?xml version="1.0" encoding="UTF-8"?>
<svg width="128pt" height="128pt" version="1.1" viewBox="0 0 128 128" xmlns="http://www.w3.org/2000/svg">
 <g fill="#9646ff">
  <path d="m117.68 57.168c-5.6953 0-10.336 4.6328-10.336 10.336 0 2.7578-2.2383 5.0039-5.0039 5.0039-2.7617 0-5.0039-2.2383-5.0039-5.0039 0-5.6953-4.6328-10.336-10.336-10.336-5.6992 0-10.336 4.6328-10.336 10.336 0 2.7578-2.2383 5.0039-5.0039 5.0039-2.7578 0-4.9961-2.2422-4.9961-5.0039 0-5.6953-4.6328-10.336-10.336-10.336s-10.336 4.6328-10.336 10.336c0 2.7578-2.2383 5.0039-5.0039 5.0039-2.7617 0-5.0039-2.2383-5.0039-5.0039 0-5.6953-4.6328-10.336-10.336-10.336s-10.336 4.6328-10.336 10.336c0 2.7578-2.2383 5.0039-5.0039 5.0039-2.7617 0-5.0039-2.2383-5.0039-5.0039 0-1.4727-1.1953-2.668-2.668-2.668s-2.668 1.1953-2.668 2.668c0 5.6914 4.6328 10.336 10.336 10.336s10.336-4.6289 10.336-10.336c0-2.7578 2.2383-5.0039 5.0039-5.0039 2.7617 0 5.0039 2.2422 5.0039 5.0039 0 5.6914 4.6328 10.336 10.336 10.336s10.336-4.6289 10.336-10.336c0-2.7578 2.2383-5.0039 5.0039-5.0039 2.7617 0 5.0039 2.2422 5.0039 5.0039 0 5.6914 4.6367 10.336 10.336 10.336s10.336-4.6289 10.336-10.336c0-2.7578 2.2383-5.0039 5.0039-5.0039 2.7617 0 5.0039 2.2422 5.0039 5.0039 0 5.6914 4.6367 10.336 10.336 10.336 5.7031 0 10.336-4.6289 10.336-10.336 0-2.7578 2.2383-5.0039 5.0039-5.0039 2.7617 0 5.0039 2.2422 5.0039 5.0039 0 1.4727 1.1992 2.668 2.668 2.668s2.668-1.1953 2.668-2.668c-0.007813-5.7031-4.6406-10.336-10.344-10.336z"/>
  <path d="m5.3555 50.668h117.33c1.4688 0 2.668-1.1953 2.668-2.668v-5.8359c0-34.164-25.938-34.164-55.969-34.164h-10.73c-30.031 0-55.969 0-55.969 34.164v5.8359c0 1.4727 1.1953 2.668 2.668 2.668z"/>
  <path d="m25.684 120h76.668c4.4688 0 9.5859-2.0977 13.168-5.332h-103c3.5898 3.2344 8.707 5.332 13.168 5.332z"/>
  <path d="m122.69 82.668h-117.33c-1.4727 0-2.668 1.1992-2.668 2.668v21.332c0 1.4648 1.1953 2.668 2.668 2.668l117.34-0.003907c1.4727 0 2.668-1.1992 2.668-2.668v-21.332c-0.003906-1.4648-1.2031-2.6641-2.6719-2.6641z"/>
 </g>
</svg>
