<?xml version="1.0" encoding="UTF-8"?>
<svg width="128pt" height="128pt" version="1.1" viewBox="0 0 128 128" xmlns="http://www.w3.org/2000/svg">
 <g fill="#9646ff">
  <path d="m27.293 49.883v-22.59h-8.75l-2.543 22.73c0.085938 3.0508 2.5703 5.5078 5.6484 5.5078 3.1055 0 5.6445-2.543 5.6445-5.6484z"/>
  <path d="m38.59 55.531c3.1055 0 5.6484-2.543 5.6484-5.6484v-22.59h-11.293v22.59c-0.003906 3.1055 2.5391 5.6484 5.6445 5.6484z"/>
  <path d="m55.531 55.531c3.1055 0 5.6484-2.543 5.6484-5.6484v-22.59h-11.293v22.59c-0.003907 3.1055 2.5352 5.6484 5.6445 5.6484z"/>
  <path d="m72.469 55.531c3.1055 0 5.6484-2.543 5.6484-5.6484v-22.59h-11.293v22.59c0 3.1055 2.5391 5.6484 5.6445 5.6484z"/>
  <path d="m89.41 55.531c3.1055 0 5.6484-2.543 5.6484-5.6484v-22.59h-11.293v22.59c0 3.1055 2.5391 5.6484 5.6445 5.6484z"/>
  <path d="m64 72.469c-7.793 0-14.117 6.3242-14.117 14.117 0 7.7969 6.3242 14.121 14.117 14.121s14.117-6.3242 14.117-14.117c0-7.793-6.3242-14.121-14.117-14.121zm5.9844 16.125c1.1016 1.1016 1.1016 2.8789 0 3.9805-0.53516 0.56641-1.2695 0.82031-2.0039 0.82031-0.70703 0-1.4414-0.25391-1.9766-0.82031l-2.0039-2.0039-2.0039 2.0039c-0.53516 0.56641-1.2695 0.82031-1.9766 0.82031-0.73438 0-1.4688-0.25391-2.0039-0.82031-1.1016-1.1016-1.1016-2.8789 0-3.9805l2.0039-2.0039-2.0039-2.0039c-1.1016-1.1016-1.1016-2.8789 0-3.9805 1.1016-1.1016 2.8789-1.1016 3.9805 0l2.0039 2 2.0039-2.0039c1.1016-1.1016 2.8789-1.1016 3.9805 0 1.1016 1.1016 1.1016 2.8789 0 3.9805l-2.0039 2.0039z"/>
  <path d="m89.41 61.176c-3.3867 0-6.4102-1.5234-8.4688-3.8945-2.0625 2.3711-5.082 3.8945-8.4688 3.8945-3.3867 0-6.4102-1.5234-8.4688-3.8945-2.0625 2.3711-5.082 3.8945-8.4688 3.8945-3.3867 0-6.4102-1.5234-8.4688-3.8945-2.0625 2.3711-5.082 3.8945-8.4688 3.8945-3.3867 0-6.4102-1.5234-8.4688-3.8945-1.4688 1.6641-3.418 2.9102-5.6484 3.5l-0.011719 51.219h79.059l0.003906-51.219c-2.2305-0.59375-4.1797-1.8359-5.6484-3.5-2.0625 2.3711-5.082 3.8945-8.4727 3.8945zm-25.41 45.176c-10.898 0-19.766-8.8672-19.766-19.766 0-10.895 8.8672-19.762 19.766-19.762s19.766 8.8672 19.766 19.766c0 10.898-8.8672 19.762-19.766 19.762z"/>
  <path d="m104.12 20.688c-1.4375-2.8789-4.3477-4.6875-7.5664-4.6875h-65.109c-3.2188 0-6.1289 1.8086-7.5664 4.6875l-0.48047 0.96094h81.203z"/>
  <path d="m109.46 27.293h-8.7539v22.59c0 3.1055 2.543 5.6484 5.6484 5.6484 3.0781 0 5.5625-2.457 5.6484-5.5078z"/>
 </g>
</svg>
