<svg width="1632" height="1224" viewBox="0 0 1632 1224" fill="none" xmlns="http://www.w3.org/2000/svg">
<path d="M634.561 322.25H469.422L536.891 536.954L634.561 322.25Z" fill="#01E6FD"/>
<path d="M604.298 752.752L800.785 322.25H673.808L552.566 587.988L604.298 752.752Z" fill="#01E6FD"/>
<path d="M641.679 871.88H715.902L966.995 322.25H840.018L620.273 803.721L641.679 871.88Z" fill="#01E6FD"/>
<path d="M1380.34 871.88L1631.04 322.25H1504.44L1253.35 871.88H1380.34Z" fill="#01E6FD"/>
<path d="M882.088 871.88L1132.85 322.25H1006.26L755.168 871.88H882.088Z" fill="#01E6FD"/>
<path d="M1214.14 871.88L1465.23 322.25H1338.26L1087.16 871.88H1214.14Z" fill="#01E6FD"/>
<path d="M1048.01 871.88L1299.1 322.25H1172.12L921.355 871.88H1048.01Z" fill="#01E6FD"/>
<path d="M1428.15 1034.47H691.264L406.279 123.219C404.496 117.166 399.526 112.515 393.091 111.113L21.8431 29.4362C12.2228 27.2701 2.60215 33.3863 0.436179 43.0066C-1.72979 52.6269 4.3863 62.2475 14.0066 64.4135L374.931 143.607L660.617 1057.73C663.101 1065.25 669.918 1070.22 677.755 1070.22H735.158C722.289 1086.28 714.453 1106.98 714.453 1129.09C714.453 1181.14 756.885 1223.25 808.937 1223.25C860.988 1223.25 903.42 1180.82 903.42 1129.09C903.42 1106.98 895.584 1086.66 882.715 1070.22H1219.43C1206.57 1086.28 1198.73 1106.98 1198.73 1129.09C1198.73 1181.14 1241.16 1223.25 1293.21 1223.25C1345.26 1223.25 1387.7 1180.82 1387.7 1129.09C1387.7 1106.98 1379.86 1086.66 1366.99 1070.22H1427.26C1437.26 1070.22 1445.1 1062.38 1445.1 1052.38C1445.99 1042.31 1438.15 1034.47 1428.15 1034.47Z" fill="#01E6FD"/>
<path d="M634.561 293.25H469.422L536.891 507.954L634.561 293.25Z" fill="#FD00CE"/>
<path d="M604.298 723.752L800.785 293.25H673.808L552.566 558.988L604.298 723.752Z" fill="#FD00CE"/>
<path d="M641.679 842.88H715.902L966.995 293.25H840.018L620.273 774.721L641.679 842.88Z" fill="#FD00CE"/>
<path d="M1380.34 842.88L1631.04 293.25H1504.44L1253.35 842.88H1380.34Z" fill="#FD00CE"/>
<path d="M882.088 842.88L1132.85 293.25H1006.26L755.168 842.88H882.088Z" fill="#FD00CE"/>
<path d="M1214.14 842.88L1465.23 293.25H1338.26L1087.16 842.88H1214.14Z" fill="#FD00CE"/>
<path d="M1048.01 842.88L1299.1 293.25H1172.12L921.355 842.88H1048.01Z" fill="#FD00CE"/>
<path d="M1440.15 1005.47H703.264L418.279 94.2186C416.496 88.1661 411.526 83.5152 405.091 82.1135L33.8431 0.436229C24.2228 -1.7299 14.6021 4.38634 12.4362 14.0066C10.2702 23.6269 16.3863 33.2475 26.0066 35.4135L386.931 114.607L672.617 1028.73C675.101 1036.25 681.918 1041.22 689.755 1041.22H747.158C734.289 1057.28 726.453 1077.98 726.453 1100.09C726.453 1152.14 768.885 1194.25 820.937 1194.25C872.988 1194.25 915.42 1151.82 915.42 1100.09C915.42 1077.98 907.584 1057.66 894.715 1041.22H1231.43C1218.57 1057.28 1210.73 1077.98 1210.73 1100.09C1210.73 1152.14 1253.16 1194.25 1305.21 1194.25C1357.26 1194.25 1399.7 1151.82 1399.7 1100.09C1399.7 1077.98 1391.86 1057.66 1378.99 1041.22H1439.26C1449.26 1041.22 1457.1 1033.38 1457.1 1023.38C1457.99 1013.31 1450.15 1005.47 1440.15 1005.47Z" fill="#FD00CE"/>
</svg>
