<svg width="96" height="96" viewBox="0 0 96 96" fill="none" xmlns="http://www.w3.org/2000/svg">
<path d="M47.9984 6.43115C22.8474 6.43115 2.39844 22.9422 2.39844 43.2971C2.39844 53.2792 7.38967 62.786 16.1274 69.6971C15.3587 72.0971 14.3049 74.3058 12.9586 76.3195C11.0386 79.2971 11.1362 83.0395 13.2474 86.0175C14.9761 88.515 17.7586 89.5687 20.2561 89.5687C21.1186 89.5687 21.9849 89.4712 22.7537 89.1862C28.2249 87.4574 34.0826 84.2887 40.1316 79.5862C68.3537 83.5237 93.6026 65.6662 93.6026 43.2972C93.5989 22.9423 73.1495 6.43115 47.9984 6.43115ZM39.7409 71.4222C38.5897 71.2309 37.4384 71.5197 36.4784 72.2847C30.7184 76.8935 25.3405 80.0622 20.5405 81.5022C20.3493 81.5022 20.0605 81.5022 19.963 81.4047C19.8655 81.2135 19.6743 80.9247 19.8655 80.7335C22.168 77.1823 23.8031 73.2447 24.7631 69.0224C25.1456 67.3912 24.4743 65.76 23.1318 64.8C15.1631 59.3288 10.5539 51.4579 10.5539 43.2979C10.5539 27.36 27.3539 14.4979 48.0918 14.4979C68.8298 14.4979 85.6298 27.4579 85.6298 43.2979C85.536 61.2489 63.6478 75.5512 39.7409 71.4222Z" fill="#FD00CE"/>
<path d="M61.149 48H34.8469C34.3669 48 33.9844 48.3825 33.9844 48.8625V49.44C33.9844 56.8312 40.0331 62.88 47.4244 62.88H48.4819C55.8731 62.88 61.9219 56.8312 61.9219 49.44V48.8625C62.0157 48.3825 61.629 48 61.149 48Z" fill="#FD00CE"/>
<path d="M65.6999 33.3904C66.4034 33.4432 66.9408 34.0694 66.7208 34.7397C66.3913 35.7435 65.7799 36.6575 64.938 37.3838C63.7561 38.4033 62.2049 38.9794 60.5874 38.9995C58.97 39.0195 57.4025 38.4822 56.1914 37.4924C55.3296 36.7882 54.6923 35.8909 54.3334 34.897C54.0932 34.2318 54.6149 33.5893 55.3187 33.5188C56.0056 33.4501 56.6029 33.9641 56.9199 34.5772C57.1471 35.0166 57.4688 35.4135 57.8704 35.7417C58.6096 36.3458 59.5662 36.6737 60.5534 36.6615C61.5405 36.6492 62.4872 36.2976 63.2085 35.6754C63.5985 35.339 63.9074 34.9366 64.1216 34.4943C64.4235 33.8708 65.0092 33.3385 65.6999 33.3904Z" fill="#FD00CE"/>
<path d="M39.6999 33.3904C40.4034 33.4432 40.9408 34.0694 40.7208 34.7397C40.3913 35.7435 39.7799 36.6575 38.938 37.3838C37.7561 38.4033 36.2049 38.9794 34.5874 38.9995C32.97 39.0195 31.4025 38.4822 30.1914 37.4924C29.3296 36.7882 28.6923 35.8909 28.3334 34.897C28.0932 34.2318 28.6149 33.5893 29.3187 33.5188C30.0056 33.4501 30.6029 33.9641 30.9199 34.5772C31.1471 35.0166 31.4688 35.4135 31.8704 35.7417C32.6096 36.3458 33.5662 36.6737 34.5534 36.6615C35.5405 36.6492 36.4872 36.2976 37.2085 35.6754C37.5985 35.339 37.9074 34.9366 38.1216 34.4943C38.4235 33.8708 39.0092 33.3385 39.6999 33.3904Z" fill="#FD00CE"/>
</svg>
