<svg width="96" height="96" viewBox="0 0 96 96" fill="none" xmlns="http://www.w3.org/2000/svg">
<path d="M47.9984 6.43115C22.8474 6.43115 2.39844 22.9422 2.39844 43.2971C2.39844 53.2792 7.38967 62.786 16.1274 69.6971C15.3586 72.0971 14.3049 74.3058 12.9586 76.3195C11.0386 79.2971 11.1362 83.0395 13.2474 86.0175C14.9761 88.515 17.7586 89.5687 20.2561 89.5687C21.1186 89.5687 21.9849 89.4712 22.7537 89.1862C28.2249 87.4574 34.0826 84.2886 40.1316 79.5862C68.3537 83.5237 93.6026 65.6662 93.6026 43.2972C93.5989 22.9423 73.1495 6.43115 47.9984 6.43115ZM39.7409 71.4222C38.5897 71.2309 37.4384 71.5197 36.4784 72.2847C30.7184 76.8935 25.3405 80.0622 20.5405 81.5022C20.3493 81.5022 20.0605 81.5022 19.963 81.4047C19.8655 81.2135 19.6743 80.9247 19.8655 80.7335C22.168 77.1822 23.8031 73.2447 24.7631 69.0224C25.1456 67.3912 24.4743 65.76 23.1318 64.8C15.1631 59.3287 10.5539 51.4579 10.5539 43.2979C10.5539 27.36 27.3539 14.4979 48.0918 14.4979C68.8297 14.4979 85.6297 27.4579 85.6297 43.2979C85.536 61.2489 63.6478 75.5512 39.7409 71.4222Z" fill="#FD00CE"/>
<path d="M41.3745 33.0222C41.3745 36.4684 38.5807 39.2622 35.1345 39.2622C31.6883 39.2622 28.8945 36.4684 28.8945 33.0222C28.8945 29.576 31.6883 26.7822 35.1345 26.7822C38.5807 26.7822 41.3745 29.576 41.3745 33.0222Z" fill="#FD00CE"/>
<path d="M67.1011 33.0222C67.1011 36.4684 64.3073 39.2622 60.8611 39.2622C57.4149 39.2622 54.6211 36.4684 54.6211 33.0222C54.6211 29.576 57.4149 26.7822 60.8611 26.7822C64.3073 26.7822 67.1011 29.576 67.1011 33.0222Z" fill="#FD00CE"/>
<path d="M61.149 48H34.8469C34.3669 48 33.9844 48.3825 33.9844 48.8625V49.44C33.9844 56.8312 40.0331 62.88 47.4244 62.88H48.4819C55.8731 62.88 61.9219 56.8312 61.9219 49.44V48.8625C62.0157 48.3825 61.629 48 61.149 48Z" fill="#FD00CE"/>
</svg>
