<svg width="96" height="96" viewBox="0 0 96 96" fill="none" xmlns="http://www.w3.org/2000/svg">
<path d="M47.9984 6.43115C22.8474 6.43115 2.39844 22.9422 2.39844 43.2971C2.39844 53.2792 7.38967 62.786 16.1274 69.6971C15.3587 72.0971 14.3049 74.3058 12.9586 76.3195C11.0386 79.2971 11.1362 83.0395 13.2474 86.0175C14.9761 88.515 17.7586 89.5687 20.2561 89.5687C21.1186 89.5687 21.9849 89.4712 22.7537 89.1862C28.2249 87.4574 34.0826 84.2887 40.1316 79.5862C68.3537 83.5237 93.6026 65.6662 93.6026 43.2972C93.5989 22.9423 73.1495 6.43115 47.9984 6.43115ZM39.7409 71.4222C38.5897 71.2309 37.4384 71.5197 36.4784 72.2847C30.7184 76.8935 25.3405 80.0622 20.5405 81.5022C20.3493 81.5022 20.0605 81.5022 19.963 81.4047C19.8655 81.2135 19.6743 80.9247 19.8655 80.7335C22.168 77.1823 23.8031 73.2447 24.7631 69.0224C25.1456 67.3912 24.4743 65.76 23.1318 64.8C15.1631 59.3288 10.5539 51.4579 10.5539 43.2979C10.5539 27.36 27.3539 14.4979 48.0918 14.4979C68.8298 14.4979 85.6298 27.4579 85.6298 43.2979C85.536 61.2489 63.6478 75.5512 39.7409 71.4222Z" fill="#FD00CE"/>
<path d="M41.48 35.24C41.48 38.6862 38.6862 41.48 35.24 41.48C31.7938 41.48 29 38.6862 29 35.24C29 31.7938 31.7938 29 35.24 29C38.6862 29 41.48 31.7938 41.48 35.24Z" fill="#FD00CE"/>
<path d="M67.2066 35.24C67.2066 38.6862 64.4128 41.48 60.9666 41.48C57.5204 41.48 54.7266 38.6862 54.7266 35.24C54.7266 31.7938 57.5204 29 60.9666 29C64.4128 29 67.2066 31.7938 67.2066 35.24Z" fill="#FD00CE"/>
<path d="M58.5168 54.2368L50.0116 58.2625C49.8564 58.3359 49.8426 58.6268 49.9806 58.9184L50.1467 59.2692C52.2717 63.7589 55.9668 66.5073 58.3569 65.3761L58.6988 65.2142C61.0889 64.083 61.3058 59.4829 59.1808 54.9932L59.0148 54.6424C58.9071 54.3365 58.6721 54.1633 58.5168 54.2368Z" fill="#FD00CE"/>
<path d="M61.0488 48.0297C61.7536 48.1839 62.1968 48.8932 61.9526 49.5721C61.3018 51.3813 60.2598 53.0517 58.886 54.4776C57.1982 56.2293 55.0641 57.5551 52.6814 58.3323C50.2986 59.1095 47.7443 59.313 45.2549 58.9238C43.2084 58.6039 41.2602 57.892 39.5309 56.838C38.9238 56.468 38.8295 55.6457 39.2886 55.1027C39.7061 54.609 40.4319 54.5291 40.9857 54.8631C42.4062 55.7196 43.5788 55.738 45.2549 56C47.3183 56.3225 49.525 55.7469 51.5 55.1027C53.475 54.4585 55.6011 53.4519 57 52C58.1037 50.8545 58.9263 50.3941 59.4684 48.9477C59.7109 48.3008 60.3739 47.882 61.0488 48.0297Z" fill="#FD00CE"/>
</svg>
