<svg width="96" height="96" viewBox="0 0 96 96" fill="none" xmlns="http://www.w3.org/2000/svg">
<path d="M47.9984 6.43115C22.8474 6.43115 2.39844 22.9422 2.39844 43.2971C2.39844 53.2792 7.38967 62.786 16.1274 69.6971C15.3587 72.0971 14.3049 74.3058 12.9586 76.3195C11.0386 79.2971 11.1362 83.0395 13.2474 86.0175C14.9761 88.515 17.7586 89.5687 20.2561 89.5687C21.1186 89.5687 21.9849 89.4712 22.7537 89.1862C28.2249 87.4574 34.0826 84.2887 40.1316 79.5862C68.3537 83.5237 93.6026 65.6662 93.6026 43.2972C93.5989 22.9423 73.1495 6.43115 47.9984 6.43115ZM39.7409 71.4222C38.5897 71.2309 37.4384 71.5197 36.4784 72.2847C30.7184 76.8935 25.3405 80.0622 20.5405 81.5022C20.3493 81.5022 20.0605 81.5022 19.963 81.4047C19.8655 81.2135 19.6743 80.9247 19.8655 80.7335C22.168 77.1823 23.8031 73.2447 24.7631 69.0224C25.1456 67.3912 24.4743 65.76 23.1318 64.8C15.1631 59.3288 10.5539 51.4579 10.5539 43.2979C10.5539 27.36 27.3539 14.4979 48.0918 14.4979C68.8298 14.4979 85.6298 27.4579 85.6298 43.2979C85.536 61.2489 63.6478 75.5512 39.7409 71.4222Z" fill="#FD00CE"/>
<path d="M61.149 48H34.8469C34.3669 48 33.9844 48.3825 33.9844 48.8625V49.44C33.9844 56.8312 40.0331 62.88 47.4244 62.88H48.4819C55.8731 62.88 61.9219 56.8312 61.9219 49.44V48.8625C62.0157 48.3825 61.629 48 61.149 48Z" fill="#FD00CE"/>
<path d="M65.6898 38.3896C66.4043 38.4433 67.0453 37.9063 66.9416 37.1974C66.8834 36.7997 66.782 36.4073 66.6382 36.0263C66.3404 35.2371 65.8673 34.514 65.2491 33.9034C64.631 33.2928 63.8814 32.8081 63.0486 32.4804C62.2157 32.1528 61.3178 31.9893 60.4126 32.0005C59.5073 32.0118 58.6145 32.1975 57.7915 32.5457C56.9685 32.894 56.2333 33.3971 55.6332 34.0228C55.0331 34.6485 54.5812 35.3831 54.3065 36.1794C54.1732 36.5658 54.083 36.9625 54.0367 37.3635C53.9547 38.0728 54.6075 38.5901 55.318 38.5189C56.0459 38.446 56.5487 37.7707 56.7537 37.0684C56.7689 37.0164 56.7853 36.9647 56.803 36.9133C56.967 36.438 57.2368 35.9995 57.595 35.626C57.9532 35.2525 58.392 34.9522 58.8833 34.7443C59.3745 34.5364 59.9074 34.4256 60.4478 34.4189C60.9882 34.4122 61.5241 34.5098 62.0212 34.7053C62.5184 34.9009 62.9658 35.1902 63.3348 35.5547C63.7037 35.9192 63.9862 36.3508 64.1639 36.8219C64.1838 36.8746 64.2024 36.9277 64.2195 36.981C64.4429 37.6758 64.9621 38.335 65.6898 38.3896Z" fill="#FD00CE"/>
<path d="M39.6897 38.3896C40.4042 38.4433 41.0453 37.9063 40.9416 37.1974C40.8834 36.7997 40.782 36.4073 40.6382 36.0263C40.3404 35.2371 39.8673 34.514 39.2491 33.9034C38.631 33.2928 37.8814 32.8081 37.0486 32.4804C36.2157 32.1528 35.3178 31.9893 34.4126 32.0005C33.5073 32.0118 32.6145 32.1975 31.7915 32.5457C30.9685 32.894 30.2333 33.3971 29.6332 34.0228C29.0331 34.6485 28.5812 35.3831 28.3065 36.1794C28.1732 36.5658 28.083 36.9625 28.0367 37.3635C27.9547 38.0728 28.6075 38.5901 29.318 38.5189C30.0459 38.446 30.5487 37.7707 30.7537 37.0684C30.7689 37.0164 30.7853 36.9647 30.8031 36.9133C30.967 36.438 31.2368 35.9995 31.595 35.626C31.9532 35.2525 32.392 34.9522 32.8833 34.7443C33.3746 34.5365 33.9074 34.4256 34.4478 34.4189C34.9882 34.4122 35.5241 34.5098 36.0212 34.7054C36.5184 34.901 36.9658 35.1903 37.3347 35.5547C37.7037 35.9192 37.9861 36.3508 38.1639 36.8219C38.1838 36.8746 38.2023 36.9276 38.2195 36.981C38.4429 37.6758 38.962 38.335 39.6897 38.3896Z" fill="#FD00CE"/>
</svg>
